# xmcd
#
# Track frame offsets: 
#        150
#        18228
#        34148
#        57851
#        73016
#        93693
#        113376
#        135228
#        150806
#        168672
#        189660
#        210955
#
# Disc length: 2972 seconds
#
# Revision: 2
# Processed by: cddbd v1.5.2PL0 Copyright (c) Steve Scherf et al.
# Submitted via: ExactAudioCopy v1.0b1
#
DISCID=900b9a0c
DTITLE=Curtis Stigers - Real Emotional
DYEAR=2007
DGENRE=Jazz
TTITLE0=I'll Be Your Baby Tonight
TTITLE1=I Only Want To Be With You
TTITLE2=I Don't Wanna Talk About It Now
TTITLE3=As You Turn To Go
TTITLE4=San Diego Serenade
TTITLE5=A Woman Just Like You
TTITLE6=American Tune
TTITLE7=Night Owl
TTITLE8=Your Mind Is On Vacation
TTITLE9=I Need You
TTITLE10=Stardust
TTITLE11=Real Emotional Girl
EXTD=YEAR: 2007
EXTT0=
EXTT1=
EXTT2=
EXTT3=
EXTT4=
EXTT5=
EXTT6=
EXTT7=
EXTT8=
EXTT9=
EXTT10=
EXTT11=
PLAYORDER=
